#!OML:ASF E:\Steps\Project 1\Capture day 1\Session 2\Subject.ASF
:FULLY-SPECIFIED
:DEGREES
1
root 16.8939 18.045 20.6979 -153.372 -3.1004 173.549
lowerback -30.1007 -2.89641 -11.8485
upperback -1.14794 -0.312613 -1.29046
thorax 14.449 -1.19381 4.757
lowerneck -5.98312 -1.20304 -0.527896
upperneck 2.73955 -1.73404 3.1808
head 1.9194 -0.803972 1.03412
rclavicle 9.24349e-015 -2.82274e-014
rhumerus -38.7077 -21.0057 -75.3936
rradius 31.026
rwrist -1.54777
rhand -6.25636 -53.0629
rfingers 7.12502
rthumb 19.5859 -82.0964
lclavicle 9.24349e-015 -2.82274e-014
lhumerus -31.8771 5.35889 80.0206
lradius 23.8391
lwrist -4.22279
lhand -20.362 -12.9733
lfingers 7.12502
lthumb 5.99031 16.922
rfemur -22.6499 3.71229 15.9445
rtibia 5.57849
rfoot -14.6138 -0.199452
rtoes -29.78
lfemur -23.6167 -9.80244 -26.4488
ltibia 9.44789
lfoot -9.32304 -3.29402
ltoes -12.0902
2
root 16.895 18.0457 20.6974 -153.338 -3.06056 173.519
lowerback -30.1207 -2.8915 -11.8214
upperback -1.15942 -0.312655 -1.34007
thorax 14.4436 -1.19247 4.68695
lowerneck -6.03555 -1.22459 -0.398777
upperneck 2.76376 -1.77038 3.10029
head 1.93452 -0.822011 0.984769
rclavicle -1.13307e-014 -2.98177e-014
rhumerus -38.634 -21.042 -75.4485
rradius 30.9629
rwrist -1.49069
rhand -5.99362 -52.5767
rfingers 7.12502
rthumb 19.8385 -81.5842
lclavicle -1.13307e-014 -2.98177e-014
lhumerus -31.8748 5.12335 80.0407
lradius 23.9914
lwrist -4.01332
lhand -20.5575 -12.8005
lfingers 7.12502
lthumb 5.80155 17.1
rfemur -22.9009 3.75769 15.8947
rtibia 6.01318
rfoot -14.6796 -0.216539
rtoes -29.1622
lfemur -23.6373 -9.92323 -26.4513
ltibia 9.42934
lfoot -9.39642 -3.21912
ltoes -10.0674
3
root 16.8968 18.0459 20.6974 -153.253 -3.02339 173.52
lowerback -30.1282 -2.79704 -11.6422
upperback -1.25985 -0.260068 -1.49855
thorax 14.3202 -1.15354 4.43751
lowerneck -6.01595 -1.24467 -0.215685
upperneck 2.88853 -1.81834 3.12711
head 1.97068 -0.842876 0.960285
rclavicle -6.80837e-015 1.11319e-014
rhumerus -38.8264 -21.162 -75.5642
rradius 31.0443
rwrist -1.34341
rhand -5.48445 -52.1328
rfingers 7.12502
rthumb 20.3279 -81.089
lclavicle -6.80837e-015 1.11319e-014
lhumerus -32.0243 4.6927 79.9197
lradius 24.1787
lwrist -3.70105
lhand -20.7503 -13.1889
lfingers 7.12502
lthumb 5.6154 16.7167
rfemur -23.0297 3.6667 15.9189
rtibia 6.06543
rfoot -14.5567 -0.11364
rtoes -29.0633
lfemur -23.7178 -9.97186 -26.4299
ltibia 9.41794
lfoot -9.46786 -3.13817
ltoes -10.3582
4
root 16.9003 18.0458 20.6986 -153.228 -3.0889 173.52
lowerback -30.2044 -2.85632 -11.8132
upperback -1.20067 -0.26894 -1.34931
thorax 14.4249 -1.17374 4.68727
lowerneck -5.92788 -1.23954 -0.476528
upperneck 2.66017 -1.78664 3.20116
head 1.8842 -0.830982 1.02976
rclavicle -2.13694e-014 1.11717e-013
rhumerus -38.7285 -21.2017 -75.3473
rradius 31.1409
rwrist -1.19696
rhand -5.11424 -52.1983
rfingers 7.12502
rthumb 20.6836 -81.1161
lclavicle -2.13694e-014 1.11717e-013
lhumerus -31.9103 4.79753 80.1349
lradius 24.2491
lwrist -3.79153
lhand -20.8097 -13.6014
lfingers 7.12502
lthumb 5.55807 16.3057
rfemur -23.026 3.6493 15.957
rtibia 6.01883
rfoot -14.4712 -0.125816
rtoes -29.0105
lfemur -23.7701 -9.97576 -26.3988
ltibia 9.46349
lfoot -9.388 -3.15974
ltoes -10.8299
5
root 16.9009 18.0462 20.6965 -153.314 -3.15527 173.562
lowerback -30.1216 -2.8311 -11.7654
upperback -1.18253 -0.257047 -1.31895
thorax 14.4097 -1.16207 4.70359
lowerneck -5.87079 -1.28429 -0.63454
upperneck 2.60949 -1.83842 3.32472
head 1.86265 -0.856733 1.09472
rclavicle -5.31749e-015 3.29983e-014
rhumerus -38.7474 -21.3313 -75.2269
rradius 31.1997
rwrist -1.13006
rhand -5.24395 -52.2315
rfingers 7.12502
rthumb 20.559 -81.1628
lclavicle -5.31749e-015 3.29983e-014
lhumerus -31.8571 4.765 80.2005
lradius 24.3052
lwrist -3.72091
lhand -20.8304 -13.6938
lfingers 7.12502
lthumb 5.53806 16.2138
rfemur -22.9123 3.38607 16.0772
rtibia 6.01623
rfoot -14.6565 0.102946
rtoes -29.1453
lfemur -23.6715 -10.1018 -26.3091
ltibia 9.43839
lfoot -9.27527 -3.05707
ltoes -10.412
6
root 16.8999 18.0478 20.6938 -153.382 -3.18341 173.637
lowerback -30.0717 -2.77489 -11.6274
upperback -1.19429 -0.236758 -1.30653
thorax 14.374 -1.14075 4.65492
lowerneck -5.82706 -1.36996 -0.555996
upperneck 2.71168 -1.95032 3.15154
head 1.88646 -0.913725 1.02245
rclavicle 6.55989e-015 -1.39149e-014
rhumerus -38.8245 -21.2663 -75.2148
rradius 31.4344
rwrist -1.05417
rhand -4.96003 -53.897
rfingers 7.12502
rthumb 20.8318 -82.7986
lclavicle 6.55989e-015 -1.39149e-014
lhumerus -31.8842 4.66183 80.2638
lradius 24.4028
lwrist -3.59936
lhand -20.6489 -13.7021
lfingers 7.12502
lthumb 5.71332 16.2008
rfemur -22.8474 3.12985 16.217
rtibia 6.06265
rfoot -14.9087 0.331969
rtoes -29.1376
lfemur -23.5762 -10.1866 -26.2064
ltibia 9.38069
lfoot -9.24707 -2.92457
ltoes -10.6978
7
root 16.9026 18.0476 20.6965 -153.33 -3.22995 173.65
lowerback -30.0223 -2.75102 -11.5308
upperback -1.25652 -0.253297 -1.35999
thorax 14.282 -1.1377 4.53913
lowerneck -5.82767 -1.40149 -0.295265
upperneck 2.89791 -2.00618 2.94435
head 1.94125 -0.941042 0.909906
rclavicle 1.41137e-014 -2.66371e-014
rhumerus -38.861 -21.0913 -75.4394
rradius 31.5035
rwrist -1.50719
rhand -5.36216 -53.3047
rfingers 7.12502
rthumb 20.4454 -82.2483
lclavicle 1.41137e-014 -2.66371e-014
lhumerus -31.9905 4.5178 80.2095
lradius 24.5654
lwrist -3.51746
lhand -20.2841 -13.6267
lfingers 7.12502
lthumb 6.06558 16.2665
rfemur -22.7777 3.04348 16.2651
rtibia 5.77797
rfoot -14.4261 0.477117
rtoes -28.8792
lfemur -23.6704 -10.0904 -26.1948
ltibia 9.43624
lfoot -9.16695 -2.98672
ltoes -10.5696
8
root 16.9067 18.046 20.7008 -153.275 -3.2547 173.64
lowerback -30.0458 -2.79448 -11.6398
upperback -1.22359 -0.269094 -1.29107
thorax 14.3329 -1.15422 4.66593
lowerneck -5.85712 -1.36895 -0.357781
upperneck 2.839 -1.95935 2.99343
head 1.92817 -0.917803 0.937728
rclavicle 4.02539e-015 5.56597e-015
rhumerus -38.7093 -21.0809 -75.4068
rradius 31.5678
rwrist -1.42007
rhand -4.85895 -53.8339
rfingers 7.12502
rthumb 20.9289 -82.7248
lclavicle 4.02539e-015 5.56597e-015
lhumerus -31.8731 4.57589 80.3054
lradius 24.6168
lwrist -3.57816
lhand -20.2981 -13.595
lfingers 7.12502
lthumb 6.05205 16.2986
rfemur -22.7354 2.98252 16.2912
rtibia 5.52331
rfoot -13.8419 0.584949
rtoes -28.7515
lfemur -23.7804 -10.0248 -26.1913
ltibia 9.49421
lfoot -8.98789 -3.06577
ltoes -9.60197
9
root 16.9101 18.0465 20.7028 -153.278 -3.31466 173.685
lowerback -29.9296 -2.7813 -11.5265
upperback -1.27849 -0.312172 -1.31814
thorax 14.2249 -1.15981 4.56203
lowerneck -5.81795 -1.29173 -0.440336
upperneck 2.79484 -1.85977 3.17815
head 1.90896 -0.866531 1.01427
rclavicle -1.47101e-014 5.52621e-014
rhumerus -38.7452 -21.087 -75.4778
rradius 31.6272
rwrist -1.40965
rhand -5.01116 -53.2689
rfingers 7.12502
rthumb 20.7827 -82.176
lclavicle -1.47101e-014 5.52621e-014
lhumerus -31.925 4.42564 80.2598
lradius 24.6944
lwrist -3.51164
lhand -20.5821 -13.7246
lfingers 7.12502
lthumb 5.77785 16.1766
rfemur -22.7298 3.05606 16.3629
rtibia 5.51723
rfoot -13.8917 0.419157
rtoes -28.6974
lfemur -23.8102 -10.0628 -26.0847
ltibia 9.47438
lfoot -8.74918 -3.09968
ltoes -7.665
10
root 16.9128 18.0477 20.7023 -153.319 -3.43402 173.718
lowerback -29.8949 -2.82772 -11.505
upperback -1.2481 -0.379279 -1.27159
thorax 14.2575 -1.18813 4.57687
lowerneck -5.88469 -1.23949 -0.494589
upperneck 2.67379 -1.78764 3.24536
head 1.88183 -0.830975 1.04708
rclavicle 5.31749e-015 -4.73108e-014
rhumerus -38.6346 -20.9963 -75.5447
rradius 31.636
rwrist -1.47915
rhand -5.48037 -52.6392
rfingers 7.12502
rthumb 20.3318 -81.5949
lclavicle 5.31749e-015 -4.73108e-014
lhumerus -31.8853 4.33758 80.3305
lradius 24.7524
lwrist -3.45897
lhand -20.5379 -13.8285
lfingers 7.12502
lthumb 5.82048 16.0716
rfemur -22.6303 3.17439 16.4096
rtibia 5.4556
rfoot -13.976 0.179361
rtoes -28.4525
lfemur -23.7798 -10.0896 -26.008
ltibia 9.47046
lfoot -8.6181 -3.14448
ltoes -6.88356
11
root 16.9149 18.0477 20.7003 -153.392 -3.52298 173.718
lowerback -29.8346 -2.83968 -11.5036
upperback -1.20154 -0.389592 -1.27316
thorax 14.2873 -1.19153 4.57257
lowerneck -5.99632 -1.20076 -0.558925
upperneck 2.52639 -1.73823 3.40007
head 1.85614 -0.805622 1.10857
rclavicle -8.10048e-015 1.74931e-014
rhumerus -38.6018 -20.9675 -75.6147
rradius 31.6789
rwrist -1.52478
rhand -5.70596 -53.0378
rfingers 7.12502
rthumb 20.115 -82.0164
lclavicle -8.10048e-015 1.74931e-014
lhumerus -31.82 4.27118 80.3619
lradius 24.7752
lwrist -3.47964
lhand -20.3516 -13.8559
lfingers 7.12502
lthumb 6.00039 16.0391
rfemur -22.4836 3.44439 16.3768
rtibia 5.38605
rfoot -14.0729 -0.189876
rtoes -27.8761
lfemur -23.6925 -10.0623 -26.0096
ltibia 9.53844
lfoot -8.75914 -3.1888
ltoes -8.797
12
root 16.9159 18.0468 20.6984 -153.449 -3.52062 173.759
lowerback -29.8213 -2.79391 -11.4443
upperback -1.16388 -0.340359 -1.27327
thorax 14.3196 -1.16552 4.56208
lowerneck -6.08317 -1.25922 -0.513168
upperneck 2.58002 -1.8192 3.35237
head 1.88961 -0.845118 1.08256
rclavicle 7.55382e-015 2.10712e-014
rhumerus -38.6256 -20.9572 -75.6251
rradius 31.7901
rwrist -1.55321
rhand -5.74261 -53.548
rfingers 7.12502
rthumb 20.0798 -82.5304
lclavicle 7.55382e-015 2.10712e-014
lhumerus -31.7456 4.19406 80.4218
lradius 24.7784
lwrist -3.49248
lhand -20.6148 -13.786
lfingers 7.12502
lthumb 5.7463 16.1161
rfemur -22.4189 3.62991 16.4008
rtibia 5.39137
rfoot -14.2463 -0.377227
rtoes -27.6297
lfemur -23.6123 -10.0319 -25.9775
ltibia 9.54618
lfoot -8.77173 -3.17468
ltoes -9.56673
13
root 16.9156 18.0456 20.6971 -153.492 -3.50305 173.837
lowerback -29.8377 -2.75277 -11.3395
upperback -1.12118 -0.310176 -1.24566
thorax 14.3758 -1.14637 4.55009
lowerneck -6.14056 -1.35601 -0.33339
upperneck 2.79271 -1.95446 3.11962
head 1.96588 -0.911897 0.972759
rclavicle -1.48592e-014 1.86858e-014
rhumerus -38.602 -20.8967 -75.6252
rradius 31.9294
rwrist -1.6194
rhand -5.31346 -54.7026
rfingers 7.12502
rthumb 20.4922 -83.6412
lclavicle -1.48592e-014 1.86858e-014
lhumerus -31.7695 4.05452 80.5219
lradius 24.9392
lwrist -3.31268
lhand -20.9444 -13.634
lfingers 7.12502
lthumb 5.42806 16.2765
rfemur -22.4089 3.56348 16.5189
rtibia 5.43584
rfoot -14.307 -0.321547
rtoes -27.6221
lfemur -23.5504 -10.0614 -25.8966
ltibia 9.49633
lfoot -8.59791 -3.04103
ltoes -9.30145
14
root 16.9163 18.0437 20.6968 -153.535 -3.53418 173.865
lowerback -29.7808 -2.76311 -11.3
upperback -1.10415 -0.34001 -1.22288
thorax 14.3765 -1.15553 4.54449
lowerneck -6.14781 -1.376 -0.257664
upperneck 2.89459 -1.98506 3.04053
head 1.99876 -0.926585 0.933536
rclavicle -6.60959e-015 2.64384e-014
rhumerus -38.6013 -20.7851 -75.6646
rradius 32.0585
rwrist -1.71545
rhand -4.90725 -57.8966
rfingers 7.12502
rthumb 20.8825 -86.7927
lclavicle -6.60959e-015 2.64384e-014
lhumerus -31.8621 3.99202 80.5639
lradius 25.1524
lwrist -3.15038
lhand -20.9151 -13.524
lfingers 7.12502
lthumb 5.45629 16.3858
rfemur -22.3373 3.47017 16.587
rtibia 5.38531
rfoot -14.2942 -0.308157
rtoes -27.5579
lfemur -23.5078 -10.0811 -25.8561
ltibia 9.50142
lfoot -8.54442 -2.98348
ltoes -8.69605
